<mxfile host="Electron" agent="Mozilla/5.0 (Windows NT 10.0; Win64; x64) AppleWebKit/537.36 (KHTML, like Gecko) draw.io/28.1.2 Chrome/138.0.7204.243 Electron/37.4.0 Safari/537.36" version="28.1.2">
  <diagram name="Page-1" id="6W-ioCo0uOxTu417xkjj">
    <mxGraphModel dx="1155" dy="834" grid="1" gridSize="10" guides="1" tooltips="1" connect="1" arrows="1" fold="1" page="1" pageScale="1" pageWidth="1100" pageHeight="850" background="none" math="0" shadow="0">
      <root>
        <mxCell id="0" />
        <mxCell id="1" parent="0" />
        <mxCell id="kz_9Y1ZBVsaKenBVrDUj-2" value="Sources" style="rounded=0;whiteSpace=wrap;html=1;fillColor=none;dashed=1;" vertex="1" parent="1">
          <mxGeometry x="40" y="120" width="120" height="30" as="geometry" />
        </mxCell>
        <mxCell id="kz_9Y1ZBVsaKenBVrDUj-4" value="" style="rounded=0;whiteSpace=wrap;html=1;fillColor=none;dashed=1;" vertex="1" parent="1">
          <mxGeometry x="40" y="120" width="120" height="480" as="geometry" />
        </mxCell>
        <mxCell id="kz_9Y1ZBVsaKenBVrDUj-7" value="" style="rounded=0;whiteSpace=wrap;html=1;fillColor=none;dashed=1;" vertex="1" parent="1">
          <mxGeometry x="230" y="120" width="630" height="480" as="geometry" />
        </mxCell>
        <mxCell id="kz_9Y1ZBVsaKenBVrDUj-8" value="Data Warehouse" style="rounded=0;whiteSpace=wrap;html=1;dashed=1;" vertex="1" parent="1">
          <mxGeometry x="480" y="120" width="120" height="30" as="geometry" />
        </mxCell>
        <mxCell id="kz_9Y1ZBVsaKenBVrDUj-9" value="Consume" style="rounded=0;whiteSpace=wrap;html=1;fillColor=none;dashed=1;" vertex="1" parent="1">
          <mxGeometry x="940" y="120" width="120" height="30" as="geometry" />
        </mxCell>
        <mxCell id="kz_9Y1ZBVsaKenBVrDUj-11" value="" style="rounded=0;whiteSpace=wrap;html=1;fillColor=none;dashed=1;" vertex="1" parent="1">
          <mxGeometry x="940" y="120" width="120" height="480" as="geometry" />
        </mxCell>
        <mxCell id="kz_9Y1ZBVsaKenBVrDUj-12" value="Bronze layer" style="rounded=0;whiteSpace=wrap;html=1;fillColor=none;strokeColor=#b46504;" vertex="1" parent="1">
          <mxGeometry x="260" y="160" width="140" height="30" as="geometry" />
        </mxCell>
        <mxCell id="kz_9Y1ZBVsaKenBVrDUj-13" value="" style="rounded=0;whiteSpace=wrap;html=1;fillColor=none;strokeColor=#b46504;" vertex="1" parent="1">
          <mxGeometry x="260" y="200" width="160" height="390" as="geometry" />
        </mxCell>
        <mxCell id="kz_9Y1ZBVsaKenBVrDUj-14" value="Silver Layer" style="rounded=0;whiteSpace=wrap;html=1;fillColor=none;gradientColor=#b3b3b3;strokeColor=#666666;" vertex="1" parent="1">
          <mxGeometry x="470" y="160" width="140" height="30" as="geometry" />
        </mxCell>
        <mxCell id="kz_9Y1ZBVsaKenBVrDUj-15" value="" style="rounded=0;whiteSpace=wrap;html=1;fillColor=none;gradientColor=#b3b3b3;strokeColor=#666666;" vertex="1" parent="1">
          <mxGeometry x="470" y="200" width="160" height="390" as="geometry" />
        </mxCell>
        <mxCell id="kz_9Y1ZBVsaKenBVrDUj-16" value="Gold Layer" style="rounded=0;whiteSpace=wrap;html=1;fillColor=none;gradientColor=#ffa500;strokeColor=#d79b00;" vertex="1" parent="1">
          <mxGeometry x="670" y="160" width="180" height="30" as="geometry" />
        </mxCell>
        <mxCell id="kz_9Y1ZBVsaKenBVrDUj-17" value="" style="rounded=0;whiteSpace=wrap;html=1;fillColor=none;gradientColor=#ffa500;strokeColor=#d79b00;" vertex="1" parent="1">
          <mxGeometry x="670" y="200" width="180" height="390" as="geometry" />
        </mxCell>
        <mxCell id="kz_9Y1ZBVsaKenBVrDUj-18" value="CRM" style="image;aspect=fixed;html=1;points=[];align=center;fontSize=12;image=img/lib/azure2/general/Folder_Blank.svg;" vertex="1" parent="1">
          <mxGeometry x="75.36000000000001" y="230" width="49.29" height="40" as="geometry" />
        </mxCell>
        <mxCell id="kz_9Y1ZBVsaKenBVrDUj-19" value="ERP" style="image;aspect=fixed;html=1;points=[];align=center;fontSize=12;image=img/lib/azure2/general/Folder_Blank.svg;" vertex="1" parent="1">
          <mxGeometry x="75.36" y="340" width="49.29" height="40" as="geometry" />
        </mxCell>
        <mxCell id="kz_9Y1ZBVsaKenBVrDUj-20" value="" style="image;aspect=fixed;html=1;points=[];align=center;fontSize=12;image=img/lib/azure2/general/Files.svg;" vertex="1" parent="1">
          <mxGeometry x="110" y="230" width="27.43" height="30" as="geometry" />
        </mxCell>
        <mxCell id="kz_9Y1ZBVsaKenBVrDUj-21" value="" style="image;aspect=fixed;html=1;points=[];align=center;fontSize=12;image=img/lib/azure2/general/Files.svg;" vertex="1" parent="1">
          <mxGeometry x="110" y="330" width="27.43" height="30" as="geometry" />
        </mxCell>
        <mxCell id="kz_9Y1ZBVsaKenBVrDUj-23" value="" style="shape=link;html=1;rounded=0;" edge="1" parent="1">
          <mxGeometry width="100" relative="1" as="geometry">
            <mxPoint x="50.00999999999999" y="430" as="sourcePoint" />
            <mxPoint x="150.01" y="430" as="targetPoint" />
          </mxGeometry>
        </mxCell>
        <mxCell id="kz_9Y1ZBVsaKenBVrDUj-24" value="&lt;b&gt;Obj type&lt;/b&gt;: .csv files" style="text;html=1;align=center;verticalAlign=middle;whiteSpace=wrap;rounded=0;" vertex="1" parent="1">
          <mxGeometry x="50" y="440" width="110" height="30" as="geometry" />
        </mxCell>
        <mxCell id="kz_9Y1ZBVsaKenBVrDUj-25" value="" style="shape=cylinder3;whiteSpace=wrap;html=1;boundedLbl=1;backgroundOutline=1;size=15;fillColor=none;strokeColor=#b46504;" vertex="1" parent="1">
          <mxGeometry x="305" y="260" width="45" height="50" as="geometry" />
        </mxCell>
        <mxCell id="kz_9Y1ZBVsaKenBVrDUj-26" value="" style="shape=cylinder3;whiteSpace=wrap;html=1;boundedLbl=1;backgroundOutline=1;size=15;fillColor=none;gradientColor=#b3b3b3;strokeColor=#666666;" vertex="1" parent="1">
          <mxGeometry x="517.5" y="260" width="45" height="50" as="geometry" />
        </mxCell>
        <mxCell id="kz_9Y1ZBVsaKenBVrDUj-27" value="" style="shape=cylinder3;whiteSpace=wrap;html=1;boundedLbl=1;backgroundOutline=1;size=15;fillColor=none;gradientColor=#ffa500;strokeColor=#d79b00;" vertex="1" parent="1">
          <mxGeometry x="737.5" y="250" width="45" height="50" as="geometry" />
        </mxCell>
        <mxCell id="kz_9Y1ZBVsaKenBVrDUj-28" value="Raw Data" style="text;html=1;align=center;verticalAlign=middle;whiteSpace=wrap;rounded=0;" vertex="1" parent="1">
          <mxGeometry x="297.5" y="320" width="60" height="30" as="geometry" />
        </mxCell>
        <mxCell id="kz_9Y1ZBVsaKenBVrDUj-29" value="Clean &amp;amp; Std Data" style="text;html=1;align=center;verticalAlign=middle;whiteSpace=wrap;rounded=0;" vertex="1" parent="1">
          <mxGeometry x="480" y="320" width="130" height="30" as="geometry" />
        </mxCell>
        <mxCell id="kz_9Y1ZBVsaKenBVrDUj-30" value="Business Ready Data" style="text;html=1;align=center;verticalAlign=middle;whiteSpace=wrap;rounded=0;" vertex="1" parent="1">
          <mxGeometry x="700" y="320" width="120" height="30" as="geometry" />
        </mxCell>
        <mxCell id="kz_9Y1ZBVsaKenBVrDUj-31" value="" style="shape=link;html=1;rounded=0;" edge="1" parent="1">
          <mxGeometry width="100" relative="1" as="geometry">
            <mxPoint x="280" y="360" as="sourcePoint" />
            <mxPoint x="380" y="360" as="targetPoint" />
          </mxGeometry>
        </mxCell>
        <mxCell id="kz_9Y1ZBVsaKenBVrDUj-32" value="" style="shape=link;html=1;rounded=0;" edge="1" parent="1">
          <mxGeometry width="100" relative="1" as="geometry">
            <mxPoint x="490" y="360" as="sourcePoint" />
            <mxPoint x="590" y="360" as="targetPoint" />
          </mxGeometry>
        </mxCell>
        <mxCell id="kz_9Y1ZBVsaKenBVrDUj-33" value="" style="shape=link;html=1;rounded=0;width=-2.3809523809523814;" edge="1" parent="1">
          <mxGeometry width="100" relative="1" as="geometry">
            <mxPoint x="710" y="359.05" as="sourcePoint" />
            <mxPoint x="810" y="359.05" as="targetPoint" />
          </mxGeometry>
        </mxCell>
        <mxCell id="kz_9Y1ZBVsaKenBVrDUj-34" value="&lt;b&gt;Obj. Types:&lt;/b&gt; Tables&lt;div&gt;&lt;b&gt;Load:&lt;/b&gt;&lt;/div&gt;&lt;div&gt;&lt;span style=&quot;white-space: pre;&quot;&gt;&#x9;&lt;/span&gt;Batch Processing&lt;br&gt;&lt;/div&gt;&lt;div&gt;&lt;span style=&quot;white-space: pre;&quot;&gt;&#x9;&lt;/span&gt;Full Load&lt;br&gt;&lt;/div&gt;&lt;div&gt;&lt;span style=&quot;white-space: pre;&quot;&gt;&#x9;&lt;/span&gt;Truncate &amp;amp; Insert&lt;br&gt;&lt;/div&gt;&lt;div&gt;No &lt;b&gt;Transformations&lt;/b&gt;&lt;/div&gt;&lt;div&gt;&lt;b&gt;Data model:&lt;/b&gt; None (As is)&lt;/div&gt;" style="text;html=1;align=left;verticalAlign=middle;whiteSpace=wrap;rounded=0;" vertex="1" parent="1">
          <mxGeometry x="270" y="370" width="140" height="210" as="geometry" />
        </mxCell>
        <mxCell id="kz_9Y1ZBVsaKenBVrDUj-35" value="&lt;b&gt;Obj. Types:&lt;/b&gt; Tables&lt;div&gt;&lt;div&gt;&lt;b&gt;Load:&lt;/b&gt;&lt;/div&gt;&lt;div&gt;&lt;span style=&quot;white-space: pre;&quot;&gt;&#x9;&lt;/span&gt;Batch Processing&lt;br&gt;&lt;/div&gt;&lt;div&gt;&lt;span style=&quot;white-space: pre;&quot;&gt;&#x9;&lt;/span&gt;Full Load&lt;br&gt;&lt;/div&gt;&lt;div&gt;&lt;span style=&quot;white-space: pre;&quot;&gt;&#x9;&lt;/span&gt;Truncate &amp;amp; Insert&lt;/div&gt;&lt;/div&gt;&lt;div&gt;&lt;b&gt;Transformations:&lt;/b&gt;&lt;/div&gt;&lt;blockquote style=&quot;margin: 0 0 0 40px; border: none; padding: 0px;&quot;&gt;&lt;div&gt;Data Cleaning&lt;/div&gt;&lt;div&gt;Data Standardizaation&lt;/div&gt;&lt;div&gt;Data normalization&lt;/div&gt;&lt;div&gt;Derived Columns&lt;/div&gt;&lt;div&gt;Data Enrichment&lt;/div&gt;&lt;/blockquote&gt;&lt;div&gt;&lt;b&gt;Data model&lt;/b&gt; None (As is)&lt;/div&gt;" style="text;html=1;align=left;verticalAlign=middle;whiteSpace=wrap;rounded=0;" vertex="1" parent="1">
          <mxGeometry x="480" y="370" width="140" height="210" as="geometry" />
        </mxCell>
        <mxCell id="kz_9Y1ZBVsaKenBVrDUj-36" value="&lt;b&gt;Obj. Types:&lt;/b&gt;Views&lt;div&gt;&lt;br&gt;&lt;div&gt;No &lt;b&gt;Load&lt;/b&gt;&lt;/div&gt;&lt;div&gt;&lt;b&gt;Transformations:&lt;/b&gt;&lt;/div&gt;&lt;/div&gt;&lt;blockquote style=&quot;margin: 0 0 0 40px; border: none; padding: 0px;&quot;&gt;&lt;div&gt;&lt;div&gt;Data Integrations&lt;/div&gt;&lt;/div&gt;&lt;div&gt;&lt;div&gt;Aggregaations&lt;/div&gt;&lt;/div&gt;&lt;div&gt;&lt;div&gt;Business Logics&lt;/div&gt;&lt;/div&gt;&lt;/blockquote&gt;&lt;div&gt;&lt;div&gt;&lt;br&gt;&lt;/div&gt;&lt;div&gt;&lt;b&gt;Data Model:&lt;/b&gt;&amp;nbsp;&lt;/div&gt;&lt;/div&gt;&lt;blockquote style=&quot;margin: 0 0 0 40px; border: none; padding: 0px;&quot;&gt;&lt;div&gt;&lt;div&gt;Star Schema&lt;/div&gt;&lt;/div&gt;&lt;div&gt;&lt;div&gt;Flat tables&lt;/div&gt;&lt;/div&gt;&lt;div&gt;&lt;div&gt;Aggregated Tables&lt;/div&gt;&lt;/div&gt;&lt;/blockquote&gt;" style="text;html=1;align=left;verticalAlign=middle;whiteSpace=wrap;rounded=0;" vertex="1" parent="1">
          <mxGeometry x="680" y="370" width="160" height="210" as="geometry" />
        </mxCell>
        <mxCell id="kz_9Y1ZBVsaKenBVrDUj-37" value="" style="image;html=1;image=img/lib/clip_art/finance/Pie_Chart_128x128.png" vertex="1" parent="1">
          <mxGeometry x="975" y="200" width="50" height="60" as="geometry" />
        </mxCell>
        <mxCell id="kz_9Y1ZBVsaKenBVrDUj-39" value="" style="points=[];aspect=fixed;html=1;align=center;shadow=0;dashed=0;fillColor=#FF6A00;strokeColor=none;shape=mxgraph.alibaba_cloud.machine_learning;" vertex="1" parent="1">
          <mxGeometry x="985.09" y="460" width="29.82" height="30" as="geometry" />
        </mxCell>
        <mxCell id="kz_9Y1ZBVsaKenBVrDUj-40" value="" style="image;aspect=fixed;html=1;points=[];align=center;fontSize=12;image=img/lib/azure2/ai_machine_learning/Anomaly_Detector.svg;" vertex="1" parent="1">
          <mxGeometry x="980" y="330" width="40" height="40" as="geometry" />
        </mxCell>
        <mxCell id="kz_9Y1ZBVsaKenBVrDUj-41" value="BI" style="text;html=1;align=center;verticalAlign=middle;whiteSpace=wrap;rounded=0;" vertex="1" parent="1">
          <mxGeometry x="970" y="250" width="60" height="30" as="geometry" />
        </mxCell>
        <mxCell id="kz_9Y1ZBVsaKenBVrDUj-42" value="SQL Ad Hoc analysis" style="text;html=1;align=center;verticalAlign=middle;whiteSpace=wrap;rounded=0;" vertex="1" parent="1">
          <mxGeometry x="970" y="370" width="70" height="30" as="geometry" />
        </mxCell>
        <mxCell id="kz_9Y1ZBVsaKenBVrDUj-43" value="Machine Learning" style="text;html=1;align=center;verticalAlign=middle;whiteSpace=wrap;rounded=0;" vertex="1" parent="1">
          <mxGeometry x="955" y="500" width="90" height="30" as="geometry" />
        </mxCell>
        <mxCell id="kz_9Y1ZBVsaKenBVrDUj-44" value="" style="shape=flexArrow;endArrow=classic;html=1;rounded=0;exitX=0.999;exitY=0.481;exitDx=0;exitDy=0;exitPerimeter=0;" edge="1" parent="1" source="kz_9Y1ZBVsaKenBVrDUj-4">
          <mxGeometry width="50" height="50" relative="1" as="geometry">
            <mxPoint x="170" y="350" as="sourcePoint" />
            <mxPoint x="260" y="350" as="targetPoint" />
          </mxGeometry>
        </mxCell>
        <mxCell id="kz_9Y1ZBVsaKenBVrDUj-45" value="" style="shape=flexArrow;endArrow=classic;html=1;rounded=0;exitX=0.999;exitY=0.481;exitDx=0;exitDy=0;exitPerimeter=0;" edge="1" parent="1">
          <mxGeometry width="50" height="50" relative="1" as="geometry">
            <mxPoint x="420" y="362" as="sourcePoint" />
            <mxPoint x="470" y="362" as="targetPoint" />
          </mxGeometry>
        </mxCell>
        <mxCell id="kz_9Y1ZBVsaKenBVrDUj-46" value="" style="shape=flexArrow;endArrow=classic;html=1;rounded=0;" edge="1" parent="1">
          <mxGeometry width="50" height="50" relative="1" as="geometry">
            <mxPoint x="630" y="362" as="sourcePoint" />
            <mxPoint x="670" y="362" as="targetPoint" />
          </mxGeometry>
        </mxCell>
        <mxCell id="kz_9Y1ZBVsaKenBVrDUj-47" value="" style="shape=flexArrow;endArrow=classic;html=1;rounded=0;exitX=1;exitY=0.5;exitDx=0;exitDy=0;" edge="1" parent="1" source="kz_9Y1ZBVsaKenBVrDUj-7">
          <mxGeometry width="50" height="50" relative="1" as="geometry">
            <mxPoint x="880" y="362" as="sourcePoint" />
            <mxPoint x="940" y="360" as="targetPoint" />
          </mxGeometry>
        </mxCell>
      </root>
    </mxGraphModel>
  </diagram>
</mxfile>
